<?xml version="1.0" encoding="utf-8"?>
<!-- Generator: Adobe Illustrator 25.2.0, SVG Export Plug-In . SVG Version: 6.00 Build 0)  -->
<svg version="1.1" id="Layer_1" xmlns="http://www.w3.org/2000/svg" xmlns:xlink="http://www.w3.org/1999/xlink" x="0px" y="0px"
	 viewBox="0 0 217.7 213.6" style="enable-background:new 0 0 217.7 213.6;" xml:space="preserve">
<style type="text/css">
	.st0{fill:#2E2E38;}
	.st1{fill:#23232A;}
	.st2{fill:#FFFFFF;}
</style>
<g id="Layer_2_1_">
	<g id="Layer_1-2">
		<circle class="st0" cx="110.9" cy="106.8" r="106.8"/>
		<g id="hdU6Wm.tif">
			<path class="st1" d="M71.5,171.9c-1-1.9-1.9-3.8-2.6-5.8c-2.1-8.6,3.1-17.4,11.8-19.5c1.1-0.3,2.3-0.4,3.5-0.5
				c3.1-0.1,6.3-0.2,9.4-0.4l-1.3-1.3c-18.6-18.6-37.3-37.2-55.9-55.9c-4.9-4.9-6.7-10.5-4.6-17.1c3.7-11.6,18.1-14.8,27-6.1
				c7.2,7.1,14.4,14.3,21.5,21.5l1.5,1.5c4.5-7.4,10.9-10.2,19.4-8.2c4-8.7,10.7-12.1,20.2-10.1c0.7-1.2,1.3-2.5,2-3.6
				c4.9-7.3,14.9-9.3,22.2-4.4c0.5,0.3,0.9,0.6,1.3,1c0.6,0.5,1.1,0.9,1.6,1.4c12.9,12.9,25.9,25.8,38.8,38.8
				c8.3,8.4,10.4,20.3,5.5,30.6c-0.9,1.9-2.1,3.6-3.1,5.4l-35.1,35.1c-0.2,0-0.3,0.1-0.5,0.1c-5.5,4.2-11.7,5.8-18.6,5.5
				c-15.5-0.6-31.1-1.1-46.6-1.5c-5-0.1-9.9-0.3-14.2-3.2L71.5,171.9z M77.1,114c11,11,22,22,33,33c0.7,0.7,1.3,1.4,1.9,2.2
				c1.2,1.7,1.2,4-0.1,5.7c-1.3,2-3.2,2.5-5.4,2.5c-7-0.2-14.1-0.3-21.1-0.5c-1.8-0.2-3.6,0.5-4.9,1.8c-1.5,1.5-1.9,3.7-1,5.6
				c1,2.3,2.9,3.2,5.3,3.3c17.3,0.6,34.5,1.1,51.8,1.7c4.9,0.3,9.8-1.7,13.2-5.2c9.8-9.8,19.6-19.6,29.5-29.4c7.5-7.5,7.5-17,0-24.5
				c-12.5-12.6-25.1-25.1-37.7-37.7c-0.6-0.6-1.2-1.1-1.9-1.6c-2.5-1.6-5.7-0.9-7.3,1.6c-0.1,0.2-0.3,0.5-0.4,0.7
				c-1,2.3-0.5,4.3,1.7,6.6c2.7,2.8,2.9,5.9,0.7,8.2s-5.5,2.1-8.3-0.7c-1.7-1.7-3.4-3.4-5.1-5c-0.6-0.6-1.4-1.2-2.1-1.6
				c-2.2-1-4.9-0.4-6.4,1.6c-1.5,1.9-1.5,4.7,0.1,6.6c1.9,2.1,3.9,4,5.9,6c0.7,0.7,1.4,1.5,1.8,2.4c1.3,2.6,0.2,5.8-2.5,7.1
				c-2.1,1-4.5,0.6-6.1-1.1c-3.8-3.7-7.5-7.5-11.3-11.2c-2-2.2-5.4-2.3-7.6-0.3c-0.1,0.1-0.2,0.2-0.2,0.2c-2,2.2-1.8,5.7,0.4,7.7
				c3.8,3.5,7.4,7.3,11,11c1.9,1.8,2.2,4.8,0.7,7c-1.4,2.1-4.2,2.9-6.5,1.9c-1-0.5-1.9-1.2-2.7-2C81.1,102.9,66.7,88.5,52.3,74
				c-0.4-0.5-0.9-0.9-1.4-1.4c-2-1.7-4.9-1.8-7-0.3c-2,1.5-2.6,4.2-1.6,6.4c0.5,0.9,1.2,1.8,2,2.5C55.2,92.2,66.1,103.1,77.1,114
				L77.1,114z"/>
			<path class="st2" d="M77.1,114c-11-11-21.9-21.9-32.8-32.9c-0.8-0.7-1.5-1.6-2-2.5c-1.1-2.2-0.4-4.9,1.6-6.4c2.1-1.5,5-1.4,7,0.3
				c0.5,0.4,1,0.9,1.4,1.4c14.4,14.5,28.9,29,43.3,43.4c0.8,0.8,1.7,1.5,2.7,2c2.3,1,5.1,0.2,6.5-1.9c1.5-2.2,1.2-5.2-0.7-7
				c-3.6-3.7-7.2-7.4-11-11c-2.2-2-2.4-5.4-0.4-7.7c2-2.1,5.4-2.2,7.6-0.2c0.1,0.1,0.2,0.2,0.2,0.2c3.8,3.7,7.5,7.5,11.3,11.2
				c2,2.1,5.4,2.1,7.5,0.1c1.6-1.6,2.1-4,1.1-6.1c-0.5-0.9-1.1-1.7-1.8-2.4c-1.9-2-4-3.9-5.9-6c-1.6-1.9-1.7-4.7-0.1-6.6
				c1.5-2,4.2-2.6,6.4-1.6c0.8,0.4,1.5,1,2.1,1.6c1.7,1.6,3.4,3.4,5.1,5c2.8,2.8,6,3.1,8.3,0.7s2-5.5-0.7-8.2
				c-2.2-2.3-2.7-4.3-1.7-6.6c1.2-2.7,4.3-3.9,7-2.7c0.2,0.1,0.5,0.2,0.7,0.4c0.7,0.5,1.3,1,1.9,1.6c12.6,12.5,25.1,25.1,37.7,37.7
				c7.5,7.5,7.5,17,0,24.5c-9.8,9.8-19.6,19.6-29.4,29.4c-3.4,3.6-8.2,5.5-13.2,5.2c-17.3-0.6-34.5-1.1-51.8-1.7
				c-2.4-0.1-4.3-1-5.3-3.3c-0.9-1.9-0.5-4.1,1-5.6c1.3-1.3,3-2,4.9-1.8c7,0.2,14,0.3,21.1,0.5c2.2,0.1,4.1-0.5,5.4-2.5
				c1.2-1.7,1.3-4,0.1-5.7c-0.5-0.8-1.2-1.5-1.9-2.2C99.1,136,88.1,125,77.1,114z"/>
		</g>
	</g>
</g>
</svg>
