<svg xmlns="http://www.w3.org/2000/svg" width="280" height="260" viewBox="0 0 280 260">
  <defs>
    <style>
      .cls-1 {
        fill: #23232a;
      }

      .cls-2 {
        fill: #fff;
      }
    </style>
  </defs>
  <g id="cursor">
    <path class="cls-1" d="M250,120a10,10,0,0,0-10,10v75H80V180.36a10,10,0,0,0-15-8.66L5,206.34a10,10,0,0,0,0,17.32L65,258.3a10,10,0,0,0,15-8.66V225H240a20,20,0,0,0,20-20V130A10,10,0,0,0,250,120Zm25-83.66L215,1.7a10,10,0,0,0-15,8.66V35H40A20,20,0,0,0,20,55v75a10,10,0,0,0,20,0V55H200V79.64a10,10,0,0,0,15,8.66l60-34.64A10,10,0,0,0,275,36.34Z"/>
    <path class="cls-2" d="M30,215l30-17.32v34.64ZM220,62.3,250,45,220,27.67Z"/>
  </g>
</svg>
